<svg viewBox="0 0 512 512" xmlns="http://www.w3.org/2000/svg">
  <defs>
    <linearGradient id="fundo" x1="0" y1="0" x2="1" y2="1">
      <stop offset="0%" stop-color="#f97316"/>
      <stop offset="100%" stop-color="#dc2626"/>
    </linearGradient>
    <linearGradient id="badge" x1="0" y1="0" x2="1" y2="1">
      <stop offset="0%" stop-color="#fde047"/>
      <stop offset="100%" stop-color="#facc15"/>
    </linearGradient>
  </defs>

  <rect width="512" height="512" rx="104" fill="url(#fundo)"/>

  <g transform="translate(256,264) rotate(-8)">
    <rect x="-140" y="-150" width="280" height="220" rx="18" fill="#ffffff"/>
    <rect x="-112" y="-116" width="140" height="22" rx="4" fill="#dc2626"/>
    <rect x="-112" y="-78" width="224" height="12" rx="4" fill="#cbd5e1"/>
    <rect x="-112" y="-54" width="224" height="12" rx="4" fill="#cbd5e1"/>
    <rect x="-112" y="-30" width="160" height="12" rx="4" fill="#cbd5e1"/>
    <rect x="-112" y="6" width="100" height="52" rx="6" fill="#fca5a5"/>
    <rect x="4" y="6" width="108" height="12" rx="4" fill="#cbd5e1"/>
    <rect x="4" y="30" width="108" height="12" rx="4" fill="#cbd5e1"/>
  </g>

  <circle cx="382" cy="138" r="70" fill="url(#badge)" stroke="#ffffff" stroke-width="10"/>
  <rect x="368" y="98" width="28" height="56" rx="10" fill="#7c2d12"/>
  <circle cx="382" cy="172" r="10" fill="#7c2d12"/>
</svg>
