<svg viewBox="0 0 1200 630" xmlns="http://www.w3.org/2000/svg">
  <defs>
    <linearGradient id="fundo" x1="0" y1="0" x2="1" y2="1">
      <stop offset="0%" stop-color="#f97316"/>
      <stop offset="100%" stop-color="#dc2626"/>
    </linearGradient>
    <linearGradient id="badge" x1="0" y1="0" x2="1" y2="1">
      <stop offset="0%" stop-color="#fde047"/>
      <stop offset="100%" stop-color="#facc15"/>
    </linearGradient>
  </defs>

  <rect width="1200" height="630" fill="url(#fundo)"/>

  <g transform="translate(260,315) rotate(-8) scale(1.35)">
    <rect x="-140" y="-150" width="280" height="220" rx="18" fill="#ffffff"/>
    <rect x="-112" y="-116" width="140" height="22" rx="4" fill="#dc2626"/>
    <rect x="-112" y="-78" width="224" height="12" rx="4" fill="#cbd5e1"/>
    <rect x="-112" y="-54" width="224" height="12" rx="4" fill="#cbd5e1"/>
    <rect x="-112" y="-30" width="160" height="12" rx="4" fill="#cbd5e1"/>
    <rect x="-112" y="6" width="100" height="52" rx="6" fill="#fca5a5"/>
    <rect x="4" y="6" width="108" height="12" rx="4" fill="#cbd5e1"/>
    <rect x="4" y="30" width="108" height="12" rx="4" fill="#cbd5e1"/>
  </g>

  <circle cx="430" cy="150" r="56" fill="url(#badge)" stroke="#ffffff" stroke-width="8"/>
  <rect x="418" y="118" width="24" height="46" rx="8" fill="#7c2d12"/>
  <circle cx="430" cy="180" r="8" fill="#7c2d12"/>

  <text x="580" y="300" font-family="system-ui, -apple-system, Segoe UI, Roboto, sans-serif" font-size="92" font-weight="800" fill="#ffffff">Notícias</text>
  <text x="580" y="360" font-family="system-ui, -apple-system, Segoe UI, Roboto, sans-serif" font-size="34" font-weight="600" fill="#ffe4d6">As últimas notícias, direto das fontes</text>
</svg>
